<svg width="18" height="18" viewBox="0 0 18 18" fill="none" xmlns="http://www.w3.org/2000/svg">
<path d="M4.4999 7.2H6.2999V9H4.4999V7.2Z" fill="url(#paint0_linear)"/>
<path d="M8.0999 7.2H9.8999V9H8.0999V7.2Z" fill="url(#paint1_linear)"/>
<path d="M11.6999 7.2H13.4999V9H11.6999V7.2Z" fill="url(#paint2_linear)"/>
<path d="M4.4999 10.8H6.2999V12.6H4.4999V10.8Z" fill="url(#paint3_linear)"/>
<path d="M8.0999 10.8H9.8999V12.6H8.0999V10.8Z" fill="url(#paint4_linear)"/>
<path d="M11.6999 10.8H13.4999V12.6H11.6999V10.8Z" fill="url(#paint5_linear)"/>
<path fill-rule="evenodd" clip-rule="evenodd" d="M15.2999 4.6C15.2999 4.04772 14.8522 3.6 14.2999 3.6H3.6999C3.14762 3.6 2.6999 4.04771 2.6999 4.6V14.3C2.6999 14.8523 3.14762 15.3 3.6999 15.3H14.2999C14.8522 15.3 15.2999 14.8523 15.2999 14.3V4.6ZM2.8999 1.8C1.79533 1.8 0.899902 2.69543 0.899902 3.8V15.1C0.899902 16.2046 1.79533 17.1 2.8999 17.1H15.0999C16.2045 17.1 17.0999 16.2046 17.0999 15.1V3.8C17.0999 2.69543 16.2045 1.8 15.0999 1.8H2.8999Z" fill="url(#paint6_linear)"/>
<path fill-rule="evenodd" clip-rule="evenodd" d="M4.4999 5.4V0H6.2999V5.4H4.4999Z" fill="url(#paint7_linear)"/>
<path fill-rule="evenodd" clip-rule="evenodd" d="M11.6999 5.4V0H13.4999V5.4H11.6999Z" fill="url(#paint8_linear)"/>
<defs>
<linearGradient id="paint0_linear" x1="2.61068" y1="9.40501" x2="31.9034" y2="9.40501" gradientUnits="userSpaceOnUse">
<stop stop-color="#005DC7"/>
<stop offset="1" stop-color="#FF00FF"/>
</linearGradient>
<linearGradient id="paint1_linear" x1="2.61068" y1="9.40501" x2="31.9034" y2="9.40501" gradientUnits="userSpaceOnUse">
<stop stop-color="#005DC7"/>
<stop offset="1" stop-color="#FF00FF"/>
</linearGradient>
<linearGradient id="paint2_linear" x1="2.61068" y1="9.40501" x2="31.9034" y2="9.40501" gradientUnits="userSpaceOnUse">
<stop stop-color="#005DC7"/>
<stop offset="1" stop-color="#FF00FF"/>
</linearGradient>
<linearGradient id="paint3_linear" x1="2.61068" y1="9.40501" x2="31.9034" y2="9.40501" gradientUnits="userSpaceOnUse">
<stop stop-color="#005DC7"/>
<stop offset="1" stop-color="#FF00FF"/>
</linearGradient>
<linearGradient id="paint4_linear" x1="2.61068" y1="9.40501" x2="31.9034" y2="9.40501" gradientUnits="userSpaceOnUse">
<stop stop-color="#005DC7"/>
<stop offset="1" stop-color="#FF00FF"/>
</linearGradient>
<linearGradient id="paint5_linear" x1="2.61068" y1="9.40501" x2="31.9034" y2="9.40501" gradientUnits="userSpaceOnUse">
<stop stop-color="#005DC7"/>
<stop offset="1" stop-color="#FF00FF"/>
</linearGradient>
<linearGradient id="paint6_linear" x1="2.61068" y1="9.40501" x2="31.9034" y2="9.40501" gradientUnits="userSpaceOnUse">
<stop stop-color="#005DC7"/>
<stop offset="1" stop-color="#FF00FF"/>
</linearGradient>
<linearGradient id="paint7_linear" x1="2.61068" y1="9.40501" x2="31.9034" y2="9.40501" gradientUnits="userSpaceOnUse">
<stop stop-color="#005DC7"/>
<stop offset="1" stop-color="#FF00FF"/>
</linearGradient>
<linearGradient id="paint8_linear" x1="2.61068" y1="9.40501" x2="31.9034" y2="9.40501" gradientUnits="userSpaceOnUse">
<stop stop-color="#005DC7"/>
<stop offset="1" stop-color="#FF00FF"/>
</linearGradient>
</defs>
</svg>
