<svg width="59" height="83" viewBox="0 0 59 83" fill="none" xmlns="http://www.w3.org/2000/svg">
<path fill-rule="evenodd" clip-rule="evenodd" d="M40.5617 25.3168C41.1475 24.731 42.0972 24.731 42.683 25.3168L44.8043 27.4381C45.3901 28.0239 45.3901 28.9737 44.8043 29.5595C44.2185 30.1452 43.2688 30.1452 42.683 29.5595L40.5617 27.4381C39.9759 26.8523 39.9759 25.9026 40.5617 25.3168Z" fill="white"/>
<path fill-rule="evenodd" clip-rule="evenodd" d="M34.5617 31.3168C35.1475 30.731 36.0972 30.731 36.683 31.3168L38.8043 33.4381C39.3901 34.0239 39.3901 34.9737 38.8043 35.5594C38.2185 36.1452 37.2688 36.1452 36.683 35.5594L34.5617 33.4381C33.9759 32.8523 33.9759 31.9026 34.5617 31.3168Z" fill="white"/>
<path fill-rule="evenodd" clip-rule="evenodd" d="M45.618 15.9823C47.9612 13.6391 51.7601 13.6391 54.1033 15.9823C56.4464 18.3254 56.4464 22.1244 54.1033 24.4675L39.254 40.0239L36.0721 38.9632L51.982 22.3462C53.1535 21.1746 53.1535 19.2751 51.982 18.1036C50.8104 16.932 48.9109 16.932 47.7393 18.1036L30.0617 35.7812C28.5958 37.2471 26.6918 38.8284 24.7299 39.6981C22.766 40.5687 20.3086 40.8774 18.3944 38.9632L19.9998 37C20.6312 37.6314 22.0484 37.6052 23.5141 36.9555C24.9816 36.305 26.5778 35.0225 27.9403 33.6599L45.618 15.9823Z" fill="white"/>
<path fill-rule="evenodd" clip-rule="evenodd" d="M39.254 45.6807L46.3251 38.6097C47.1062 37.8286 47.1062 36.5623 46.3251 35.7812C45.5441 35.0002 44.2777 35.0002 43.4967 35.7812L36.4256 42.8523C35.6446 43.6334 35.6446 44.8997 36.4256 45.6807C37.2067 46.4618 38.473 46.4618 39.254 45.6807ZM48.4464 33.6599C46.4938 31.7073 43.328 31.7073 41.3754 33.6599L34.3043 40.731C32.3517 42.6836 32.3517 45.8494 34.3043 47.8021C36.2569 49.7547 39.4227 49.7547 41.3754 47.8021L48.4464 40.731C50.3991 38.7784 50.3991 35.6125 48.4464 33.6599Z" fill="white"/>
<path fill-rule="evenodd" clip-rule="evenodd" d="M44.9109 51.3376L50.5678 45.6807C51.3488 44.8997 51.3488 43.6334 50.5678 42.8523C49.7867 42.0713 48.5204 42.0713 47.7393 42.8523L42.0825 48.5092C41.3014 49.2902 41.3014 50.5565 42.0825 51.3376C42.8635 52.1186 44.1299 52.1186 44.9109 51.3376ZM52.6891 40.731C50.7365 38.7784 47.5706 38.7784 45.618 40.731L39.9612 46.3878C38.0085 48.3405 38.0085 51.5063 39.9612 53.4589C41.9138 55.4115 45.0796 55.4115 47.0322 53.4589L52.6891 47.8021C54.6417 45.8494 54.6417 42.6836 52.6891 40.731Z" fill="white"/>
<path fill-rule="evenodd" clip-rule="evenodd" d="M50.2142 58.7622L54.4568 54.5196C55.4332 53.5433 55.4332 51.9604 54.4568 50.984C53.4805 50.0077 51.8976 50.0077 50.9213 50.984L46.6787 55.2267C45.7024 56.203 45.7024 57.7859 46.6787 58.7622C47.655 59.7385 49.2379 59.7385 50.2142 58.7622ZM56.5782 48.8627C54.4303 46.7148 50.9479 46.7148 48.8 48.8627L44.5573 53.1054C42.4095 55.2532 42.4095 58.7356 44.5573 60.8835C46.7052 63.0314 50.1876 63.0314 52.3355 60.8835L56.5782 56.6409C58.726 54.493 58.726 51.0106 56.5782 48.8627Z" fill="white"/>
<path fill-rule="evenodd" clip-rule="evenodd" d="M48.4465 65.4797C37.1645 76.7617 23.9723 72.5629 19.1314 67.9836L19.1163 67.9693L19.0848 67.9379C18.0258 66.8788 16.3093 65.1624 14.7972 63.0948C13.2922 61.0369 11.8734 58.4783 11.5986 55.7295C10.8911 48.6547 9.84774 43.0025 6.90807 38.7564C4.03904 34.6122 4.9327 31.2117 6.37358 29.7708C7.41758 28.7268 8.95736 27.7263 10.8807 27.714C12.8472 27.7015 14.8243 28.722 16.7049 30.916C20.3238 35.1381 22.1963 40.8816 22.6986 43.6446C22.8468 44.4597 22.3062 45.2406 21.4912 45.3888C20.6761 45.537 19.8952 44.9964 19.747 44.1813C19.3066 41.7589 17.5963 36.5658 14.4271 32.8683C12.9135 31.1025 11.7086 30.7088 10.8998 30.714C10.0477 30.7194 9.21866 31.1684 8.4949 31.8922C8.28588 32.1012 7.15252 33.839 9.37465 37.0487C12.7989 41.9949 13.8769 48.3635 14.5837 55.431C14.7802 57.3961 15.8363 59.4337 17.2187 61.3238C18.5794 63.1845 20.1441 64.7545 21.2075 65.8179C25.1012 69.484 36.4062 73.2773 46.3251 63.3584L53.2792 56.4043L55.4998 57.7193L48.4465 65.4797Z" fill="white"/>
<path fill-rule="evenodd" clip-rule="evenodd" d="M26.6619 58.329C27.487 58.404 28.095 59.1336 28.02 59.9587C27.8683 61.6268 26.8347 64.0128 24.6134 65.2412C22.2394 66.5541 19.0643 66.2678 15.2621 63.6063C14.5835 63.1312 14.4184 62.1959 14.8935 61.5173C15.3686 60.8386 16.3039 60.6735 16.9825 61.1486C20.2514 63.4368 22.1604 63.1696 23.1616 62.6159C24.3155 61.9778 24.9482 60.6117 25.0323 59.6871C25.1073 58.862 25.8369 58.254 26.6619 58.329Z" fill="white"/>
<path fill-rule="evenodd" clip-rule="evenodd" d="M13.4447 52.3983L3.70975 62.1332C3.57605 62.2669 3.51285 62.4556 3.53906 62.6428C4.74762 71.2783 11.5352 78.0659 20.1706 79.2744C20.3579 79.3006 20.5466 79.2374 20.6803 79.1037L29.7605 70.0235L31.8818 72.1449L22.8016 81.225C22.0024 82.0243 20.8743 82.4021 19.7548 82.2455C9.79263 80.8512 1.96225 73.0208 0.56801 63.0586C0.411341 61.9392 0.789152 60.8111 1.58843 60.0118L11.3233 50.2769L13.4447 52.3983Z" fill="white"/>
<path fill-rule="evenodd" clip-rule="evenodd" d="M42.5567 6.01189C43.3109 6.3547 43.6444 7.24397 43.3016 7.99814L36.2305 23.5545C35.8877 24.3087 34.9984 24.6421 34.2443 24.2993C33.4901 23.9565 33.1566 23.0673 33.4994 22.3131L40.5705 6.75674C40.9133 6.00256 41.8026 5.66909 42.5567 6.01189Z" fill="white"/>
<path fill-rule="evenodd" clip-rule="evenodd" d="M26.7504 10.8877C27.5731 10.7909 28.3186 11.3794 28.4154 12.2022L29.8296 24.223C29.9264 25.0457 29.3379 25.7912 28.5151 25.888C27.6924 25.9848 26.9469 25.3963 26.8501 24.5735L25.4359 12.5527C25.3391 11.7299 25.9276 10.9845 26.7504 10.8877Z" fill="white"/>
<path fill-rule="evenodd" clip-rule="evenodd" d="M11.6449 7.01817C12.3956 6.66784 13.2881 6.99241 13.6385 7.74311L23.538 28.9563C23.8883 29.707 23.5637 30.5996 22.813 30.9499C22.0623 31.3002 21.1697 30.9757 20.8194 30.225L10.9199 9.01177C10.5696 8.26106 10.8942 7.3685 11.6449 7.01817Z" fill="white"/>
<path fill-rule="evenodd" clip-rule="evenodd" d="M22.9256 1.31681C23.5114 1.90259 23.5114 2.85234 22.9256 3.43813L18.683 7.68077C18.0972 8.26655 17.1475 8.26655 16.5617 7.68077C15.9759 7.09498 15.9759 6.14523 16.5617 5.55945L20.8043 1.31681C21.3901 0.731021 22.3398 0.731021 22.9256 1.31681Z" fill="white"/>
<path fill-rule="evenodd" clip-rule="evenodd" d="M22.9256 7.68074C22.3398 8.26653 21.3901 8.26653 20.8043 7.68074L16.5617 3.4381C15.9759 2.85231 15.9759 1.90257 16.5617 1.31678C17.1475 0.730995 18.0972 0.730995 18.683 1.31678L22.9256 5.55942C23.5114 6.14521 23.5114 7.09496 22.9256 7.68074Z" fill="white"/>
<path fill-rule="evenodd" clip-rule="evenodd" d="M33.5617 3.31681C34.1475 2.73103 35.0972 2.73103 35.683 3.31681L37.0972 4.73103C37.683 5.31681 37.683 6.26656 37.0972 6.85235C36.5114 7.43813 35.5617 7.43813 34.9759 6.85235L33.5617 5.43813C32.9759 4.85235 32.9759 3.9026 33.5617 3.31681Z" fill="white"/>
<path fill-rule="evenodd" clip-rule="evenodd" d="M4.56167 20.3168C5.14746 19.731 6.09721 19.731 6.68299 20.3168L8.09721 21.731C8.68299 22.3168 8.68299 23.2666 8.09721 23.8523C7.51142 24.4381 6.56167 24.4381 5.97589 23.8523L4.56167 22.4381C3.97589 21.8523 3.97589 20.9026 4.56167 20.3168Z" fill="white"/>
</svg>
