<svg width="16" height="9" viewBox="0 0 16 9" fill="none" xmlns="http://www.w3.org/2000/svg">
<path d="M0 4.49996C0 4.20697 0.237515 3.96946 0.530504 3.96946H14.3418C14.6347 3.96946 14.8723 4.20697 14.8723 4.49996V4.49996C14.8723 4.79295 14.6347 5.03046 14.3418 5.03046H0.530505C0.237515 5.03046 0 4.79295 0 4.49996V4.49996Z" fill="#015DC7"/>
<path d="M10.8414 0.352312C11.0518 0.154363 11.3799 0.154363 11.5903 0.352312L15.577 4.10354C15.8063 4.31929 15.8063 4.68367 15.577 4.89941V4.89941C15.3666 5.09736 15.0385 5.09736 14.8281 4.89941L10.8414 1.14818C10.6121 0.932434 10.6121 0.568058 10.8414 0.352312V0.352312Z" fill="#015DC7"/>
<path d="M10.8415 8.64769C10.6122 8.43194 10.6122 8.06757 10.8415 7.85182L14.8282 4.10059C15.0386 3.90264 15.3667 3.90264 15.5771 4.10059V4.10059C15.8064 4.31633 15.8064 4.68071 15.5771 4.89646L11.5904 8.64769C11.38 8.84564 11.0519 8.84564 10.8415 8.64769V8.64769Z" fill="#015DC7"/>
</svg>
