<svg width="80" height="80" viewBox="0 0 80 80" fill="none" xmlns="http://www.w3.org/2000/svg">
<path fill-rule="evenodd" clip-rule="evenodd" d="M40 77C52.1503 77 62 67.1503 62 55C62 42.8497 52.1503 33 40 33C27.8497 33 18 42.8497 18 55C18 67.1503 27.8497 77 40 77ZM40 80C53.8071 80 65 68.8071 65 55C65 41.1929 53.8071 30 40 30C26.1929 30 15 41.1929 15 55C15 68.8071 26.1929 80 40 80Z" fill="url(#paint0_linear)"/>
<path fill-rule="evenodd" clip-rule="evenodd" d="M40 71C48.8366 71 56 63.8366 56 55C56 46.1634 48.8366 39 40 39C31.1634 39 24 46.1634 24 55C24 63.8366 31.1634 71 40 71ZM40 74C50.4934 74 59 65.4934 59 55C59 44.5066 50.4934 36 40 36C29.5066 36 21 44.5066 21 55C21 65.4934 29.5066 74 40 74Z" fill="url(#paint1_linear)"/>
<path fill-rule="evenodd" clip-rule="evenodd" d="M45 23H35V25H45V23ZM32 20V28H48V20H32Z" fill="url(#paint2_linear)"/>
<path fill-rule="evenodd" clip-rule="evenodd" d="M41 30V28H39V30H41ZM44 25H36V33H44V25Z" fill="url(#paint3_linear)"/>
<path fill-rule="evenodd" clip-rule="evenodd" d="M41 1.31134e-07L38 0V12H41V1.31134e-07Z" fill="url(#paint4_linear)"/>
<path fill-rule="evenodd" clip-rule="evenodd" d="M80 41V38H70V41H80Z" fill="url(#paint5_linear)"/>
<path fill-rule="evenodd" clip-rule="evenodd" d="M10 41V38H2.62268e-07L0 41H10Z" fill="url(#paint6_linear)"/>
<path fill-rule="evenodd" clip-rule="evenodd" d="M22.3527 8.53918L19.7547 10.0392L23.134 15.8923L25.7321 14.3923L22.3527 8.53918Z" fill="url(#paint7_linear)"/>
<path fill-rule="evenodd" clip-rule="evenodd" d="M58.8806 9.93301L56.2825 8.43301L52.8814 14.3238L55.4795 15.8238L58.8806 9.93301Z" fill="url(#paint8_linear)"/>
<path fill-rule="evenodd" clip-rule="evenodd" d="M6 19L4.5 21.5981L13.4353 26.7569L14.9353 24.1588L6 19Z" fill="url(#paint9_linear)"/>
<path fill-rule="evenodd" clip-rule="evenodd" d="M73.9509 20.9653L72.4509 18.3673L63.5 23.5351L65 26.1332L73.9509 20.9653Z" fill="url(#paint10_linear)"/>
<path fill-rule="evenodd" clip-rule="evenodd" d="M36.1739 48.9286L34 50.996L42.4145 59.8442L44.5885 57.7769L36.1739 48.9286Z" fill="url(#paint11_linear)"/>
<path fill-rule="evenodd" clip-rule="evenodd" d="M51.0703 46.4824L48.949 44.361L35.7386 57.5715L37.8599 59.6928L51.0703 46.4824Z" fill="url(#paint12_linear)"/>
<path fill-rule="evenodd" clip-rule="evenodd" d="M62.668 36.3528L60.5467 34.2315L56.4142 38.3639L58.5355 40.4852L62.668 36.3528Z" fill="url(#paint13_linear)"/>
<defs>
<linearGradient id="paint0_linear" x1="14.3387" y1="0.493828" x2="66.457" y2="93.1706" gradientUnits="userSpaceOnUse">
<stop stop-color="#005DC7"/>
<stop offset="1" stop-color="#9E00FF"/>
</linearGradient>
<linearGradient id="paint1_linear" x1="14.3387" y1="0.493828" x2="66.457" y2="93.1706" gradientUnits="userSpaceOnUse">
<stop stop-color="#005DC7"/>
<stop offset="1" stop-color="#9E00FF"/>
</linearGradient>
<linearGradient id="paint2_linear" x1="14.3387" y1="0.493828" x2="66.457" y2="93.1706" gradientUnits="userSpaceOnUse">
<stop stop-color="#005DC7"/>
<stop offset="1" stop-color="#9E00FF"/>
</linearGradient>
<linearGradient id="paint3_linear" x1="14.3387" y1="0.493828" x2="66.457" y2="93.1706" gradientUnits="userSpaceOnUse">
<stop stop-color="#005DC7"/>
<stop offset="1" stop-color="#9E00FF"/>
</linearGradient>
<linearGradient id="paint4_linear" x1="14.3387" y1="0.493828" x2="66.457" y2="93.1706" gradientUnits="userSpaceOnUse">
<stop stop-color="#005DC7"/>
<stop offset="1" stop-color="#9E00FF"/>
</linearGradient>
<linearGradient id="paint5_linear" x1="14.3387" y1="0.493828" x2="66.457" y2="93.1706" gradientUnits="userSpaceOnUse">
<stop stop-color="#005DC7"/>
<stop offset="1" stop-color="#9E00FF"/>
</linearGradient>
<linearGradient id="paint6_linear" x1="14.3387" y1="0.493828" x2="66.457" y2="93.1706" gradientUnits="userSpaceOnUse">
<stop stop-color="#005DC7"/>
<stop offset="1" stop-color="#9E00FF"/>
</linearGradient>
<linearGradient id="paint7_linear" x1="14.3387" y1="0.493828" x2="66.457" y2="93.1706" gradientUnits="userSpaceOnUse">
<stop stop-color="#005DC7"/>
<stop offset="1" stop-color="#9E00FF"/>
</linearGradient>
<linearGradient id="paint8_linear" x1="14.3387" y1="0.493828" x2="66.457" y2="93.1706" gradientUnits="userSpaceOnUse">
<stop stop-color="#005DC7"/>
<stop offset="1" stop-color="#9E00FF"/>
</linearGradient>
<linearGradient id="paint9_linear" x1="14.3387" y1="0.493828" x2="66.457" y2="93.1706" gradientUnits="userSpaceOnUse">
<stop stop-color="#005DC7"/>
<stop offset="1" stop-color="#9E00FF"/>
</linearGradient>
<linearGradient id="paint10_linear" x1="14.3387" y1="0.493828" x2="66.457" y2="93.1706" gradientUnits="userSpaceOnUse">
<stop stop-color="#005DC7"/>
<stop offset="1" stop-color="#9E00FF"/>
</linearGradient>
<linearGradient id="paint11_linear" x1="14.3387" y1="0.493828" x2="66.457" y2="93.1706" gradientUnits="userSpaceOnUse">
<stop stop-color="#005DC7"/>
<stop offset="1" stop-color="#9E00FF"/>
</linearGradient>
<linearGradient id="paint12_linear" x1="14.3387" y1="0.493828" x2="66.457" y2="93.1706" gradientUnits="userSpaceOnUse">
<stop stop-color="#005DC7"/>
<stop offset="1" stop-color="#9E00FF"/>
</linearGradient>
<linearGradient id="paint13_linear" x1="14.3387" y1="0.493828" x2="66.457" y2="93.1706" gradientUnits="userSpaceOnUse">
<stop stop-color="#005DC7"/>
<stop offset="1" stop-color="#9E00FF"/>
</linearGradient>
</defs>
</svg>
